[h264 @ 0x556609b1de00] Reinit context to 848x480, pix_fmt: yuv420p
Input #0, mov,mp4,m4a,3gp,3g2,mj2, from '/var/www/html/project/media/video/original/VID-20230718-WA0102.mp4':
  Metadata:
    major_brand     : mp42
    minor_version   : 0
    compatible_brands: mp42isom
  Duration: 00:00:19.53, start: 0.000000, bitrate: 1732 kb/s
    Stream #0:0(und): Video: h264 (High), 1 reference frame (avc1 / 0x31637661), yuv420p(tv, bt709, left), 848x480, 1600 kb/s, 30 fps, 30 tbr, 90k tbn, 180k tbc (default)
    Stream #0:1(und): Audio: aac (LC) (mp4a / 0x6134706D), 44100 Hz, stereo, fltp, 128 kb/s (default)
[h264 @ 0x556609b5b880] Reinit context to 1280x720, pix_fmt: yuv420p
Input #1, mov,mp4,m4a,3gp,3g2,mj2, from '/var/www/html/project/static/images/templates/Codino.mp4':
  Metadata:
    major_brand     : mp42
    minor_version   : 1
    compatible_brands: isommp41mp42
    creation_time   : 2021-07-11T07:02:58.000000Z
  Duration: 00:00:02.00, start: 0.000000, bitrate: 1007 kb/s
    Stream #1:0(ita): Audio: aac (LC) (mp4a / 0x6134706D), 44100 Hz, stereo, fltp, 102 kb/s (default)
    Metadata:
      creation_time   : 2021-07-11T07:02:58.000000Z
      handler_name    : Core Media Audio
    Stream #1:1(und): Video: h264 (High), 1 reference frame (avc1 / 0x31637661), yuv420p(tv, bt709, progressive, left), 1280x720 [SAR 1:1 DAR 16:9], 813 kb/s, 25 fps, 25 tbr, 25k tbn, 50k tbc (default)
    Metadata:
      creation_time   : 2021-07-11T07:02:58.000000Z
      handler_name    : Core Media Video
[Parsed_scale_0 @ 0x556609b57340] w:1280 h:720 flags:'bilinear' interl:0
[Parsed_scale_2 @ 0x556609c4a200] w:1280 h:720 flags:'bilinear' interl:0
Stream mapping:
  Stream #0:0 (h264) -> scale
  Stream #0:1 (aac) -> concat:in0:a0
  Stream #1:0 (aac) -> concat:in1:a0
  Stream #1:1 (h264) -> scale
  concat:out:v0 -> Stream #0:0 (libx264)
  concat:out:a0 -> Stream #0:1 (aac)
Press [q] to stop, [?] for help
[h264 @ 0x556609b4a240] Reinit context to 848x480, pix_fmt: yuv420p
[h264 @ 0x556609f80c40] Reinit context to 1280x720, pix_fmt: yuv420p
[Parsed_scale_0 @ 0x55660aaa7a40] w:1280 h:720 flags:'bilinear' interl:0
[Parsed_scale_2 @ 0x55660aab0040] w:1280 h:720 flags:'bilinear' interl:0
[graph 0 input from stream 0:0 @ 0x55660aab3180] w:848 h:480 pixfmt:yuv420p tb:1/90000 fr:30/1 sar:0/1 sws_param:flags=2
[graph 0 input from stream 1:1 @ 0x55660aab41c0] w:1280 h:720 pixfmt:yuv420p tb:1/25000 fr:25/1 sar:1/1 sws_param:flags=2
[graph_0_in_0_1 @ 0x55660aab5180] tb:1/44100 samplefmt:fltp samplerate:44100 chlayout:0x3
[graph_0_in_1_0 @ 0x55660aab62c0] tb:1/44100 samplefmt:fltp samplerate:44100 chlayout:0x3
[Parsed_scale_0 @ 0x55660aaa7a40] w:848 h:480 fmt:yuv420p sar:0/1 -> w:1280 h:720 fmt:yuv420p sar:0/1 flags:0x2
[Parsed_setsar_1 @ 0x55660aaafc80] w:1280 h:720 sar:0/1 dar:16/9 -> sar:1/1 dar:16/9
[Parsed_scale_2 @ 0x55660aab0040] w:1280 h:720 fmt:yuv420p sar:1/1 -> w:1280 h:720 fmt:yuv420p sar:1/1 flags:0x2
[Parsed_setsar_3 @ 0x55660aab0500] w:1280 h:720 sar:1/1 dar:16/9 -> sar:1/1 dar:16/9
[libx264 @ 0x556609c47080] using SAR=1/1
[libx264 @ 0x556609c47080] using cpu capabilities: MMX2 SSE2Fast SSSE3 SSE4.2 AVX FMA3 BMI2 AVX2
[libx264 @ 0x556609c47080] profile High, level 3.1
[libx264 @ 0x556609c47080] 264 - core 155 r2917 0a84d98 - H.264/MPEG-4 AVC codec - Copyleft 2003-2018 - http://www.videolan.org/x264.html - options: cabac=1 ref=1 deblock=1:0:0 analyse=0x3:0x113 me=hex subme=2 psy=1 psy_rd=1.00:0.00 mixed_ref=0 me_range=16 chroma_me=1 trellis=0 8x8dct=1 cqm=0 deadzone=21,11 fast_pskip=1 chroma_qp_offset=0 threads=22 lookahead_threads=5 sliced_threads=0 nr=0 decimate=1 interlaced=0 bluray_compat=0 constrained_intra=0 bframes=3 b_pyramid=2 b_adapt=1 b_bias=0 direct=1 weightb=1 open_gop=0 weightp=1 keyint=250 keyint_min=25 scenecut=40 intra_refresh=0 rc_lookahead=10 rc=crf mbtree=1 crf=18.0 qcomp=0.60 qpmin=0 qpmax=69 qpstep=4 ip_ratio=1.40 aq=1:1.00
Output #0, mp4, to '/var/www/html/project/media/video/watermarks/VID-20230718-WA0102.mp4':
  Metadata:
    major_brand     : mp42
    minor_version   : 0
    compatible_brands: mp42isom
    encoder         : Lavf58.29.100
    Stream #0:0: Video: h264 (libx264), 1 reference frame (avc1 / 0x31637661), yuv420p(progressive), 1280x720 [SAR 1:1 DAR 16:9], q=-1--1, 30 fps, 15360 tbn, 30 tbc (default)
    Metadata:
      encoder         : Lavc58.54.100 libx264
    Side data:
      cpb: bitrate max/min/avg: 0/0/0 buffer size: 0 vbv_delay: -1
    Stream #0:1: Audio: aac (LC) (mp4a / 0x6134706D), 44100 Hz, stereo, fltp, delay 1024, 128 kb/s (default)
    Metadata:
      encoder         : Lavc58.54.100 aac
[Parsed_concat_4 @ 0x55660aab11c0] EOF on in0:v0, 1 streams left in segment.
[Parsed_concat_4 @ 0x55660aab11c0] EOF on in0:a0, 0 streams left in segment.
[Parsed_concat_4 @ 0x55660aab11c0] Segment finished at pts=19533333
[Parsed_concat_4 @ 0x55660aab11c0] EOF on in1:a0, 1 streams left in segment.
[Parsed_concat_4 @ 0x55660aab11c0] EOF on in1:v0, 0 streams left in segment.
[Parsed_concat_4 @ 0x55660aab11c0] Segment finished at pts=21552018
No more output streams to write to, finishing.
frame=  636 fps=104 q=-1.0 Lsize=   13745kB time=00:00:21.57 bitrate=5220.0kbits/s speed=3.51x    
[AVIOContext @ 0x556609b1c180] Statistics: 0 seeks, 12 writeouts
video:13391kB audio:331kB subtitle:0kB other streams:0kB global headers:0kB muxing overhead: 0.172921%
Input file #0 (/var/www/html/project/media/video/original/VID-20230718-WA0102.mp4):
  Input stream #0:0 (video): 586 packets read (3908469 bytes); 586 frames decoded; 
  Input stream #0:1 (audio): 841 packets read (313617 bytes); 841 frames decoded (861184 samples); 
  Total: 1427 packets (4222086 bytes) demuxed
Input file #1 (/var/www/html/project/static/images/templates/Codino.mp4):
  Input stream #1:0 (audio): 89 packets read (26579 bytes); 87 frames decoded (89024 samples); 
  Input stream #1:1 (video): 50 packets read (203365 bytes); 50 frames decoded; 
  Total: 139 packets (229944 bytes) demuxed
Output file #0 (/var/www/html/project/media/video/watermarks/VID-20230718-WA0102.mp4):
  Output stream #0:0 (video): 636 frames encoded; 636 packets muxed (13712033 bytes); 
  Output stream #0:1 (audio): 929 frames encoded (950444 samples); 930 packets muxed (338917 bytes); 
  Total: 1566 packets (14050950 bytes) muxed
[AVIOContext @ 0x556609b542c0] Statistics: 2 seeks, 57 writeouts
[libx264 @ 0x556609c47080] frame I:5     Avg QP:16.98  size:113290
[libx264 @ 0x556609c47080] frame P:214   Avg QP:18.57  size: 38106
[libx264 @ 0x556609c47080] frame B:417   Avg QP:22.59  size: 11967
[libx264 @ 0x556609c47080] consecutive B-frames: 10.7%  5.0%  1.9% 82.4%
[libx264 @ 0x556609c47080] mb I  I16..4: 10.2% 18.8% 70.9%
[libx264 @ 0x556609c47080] mb P  I16..4:  5.5%  5.0%  1.9%  P16..4: 33.8% 18.0% 14.2%  0.0%  0.0%    skip:21.7%
[libx264 @ 0x556609c47080] mb B  I16..4:  0.6%  0.2%  0.1%  B16..8: 22.6% 10.5%  2.0%  direct:16.0%  skip:47.9%  L0:31.1% L1:39.9% BI:29.0%
[libx264 @ 0x556609c47080] 8x8 transform intra:35.5% inter:36.2%
[libx264 @ 0x556609c47080] coded y,uvDC,uvAC intra: 52.6% 53.1% 18.1% inter: 25.8% 11.8% 0.4%
[libx264 @ 0x556609c47080] i16 v,h,dc,p: 48% 32% 14%  6%
[libx264 @ 0x556609c47080] i8 v,h,dc,ddl,ddr,vr,hd,vl,hu: 19% 34% 21%  4%  4%  4%  5%  4%  5%
[libx264 @ 0x556609c47080] i4 v,h,dc,ddl,ddr,vr,hd,vl,hu: 22% 30% 11%  5%  7%  6%  7%  5%  8%
[libx264 @ 0x556609c47080] i8c dc,h,v,p: 51% 27% 16%  5%
[libx264 @ 0x556609c47080] Weighted P-Frames: Y:6.5% UV:0.0%
[libx264 @ 0x556609c47080] kb/s:5094.00
[aac @ 0x556609c2cdc0] Qavg: 2336.479
[AVIOContext @ 0x556609b25040] Statistics: 4229533 bytes read, 0 seeks
[AVIOContext @ 0x556609b2e800] Statistics: 1530915 bytes read, 42 seeks
